<?xml version="1.0" encoding="UTF-8"?>
<svg id="Layer_1" data-name="Layer 1" xmlns="http://www.w3.org/2000/svg" viewBox="0 0 186.62 51.68">
  <defs>
    <style>
      .cls-1 {
        fill: #202e60;
      }

      .cls-1, .cls-2 {
        stroke-width: 0px;
      }

      .cls-2 {
        fill: #1a9fda;
      }
    </style>
  </defs>
  <g>
    <path class="cls-2" d="m44.73,40.95H15.27c-8.42,0-15.27-6.85-15.27-15.27s6.85-15.27,15.27-15.27c1.15,0,2.07.93,2.07,2.07v11.24c0,1.15-.93,2.07-2.07,2.07s-2.07-.93-2.07-2.07v-8.98c-5.15.97-9.05,5.51-9.05,10.93,0,6.13,4.99,11.12,11.12,11.12h29.46c6.13,0,11.12-4.99,11.12-11.12,0-5.68-4.25-10.44-9.89-11.05-.89-.1-1.62-.76-1.8-1.64-1.07-5.12-5.65-8.84-10.89-8.84-3.3,0-6.46,1.49-8.56,4.03v15.55c0,1.15-.93,2.07-2.07,2.07s-2.07-.93-2.07-2.07V7.46c0-.44.14-.87.4-1.23,2.87-3.9,7.47-6.23,12.31-6.23,6.7,0,12.62,4.43,14.58,10.72,7.02,1.45,12.15,7.64,12.15,14.95,0,8.42-6.85,15.27-15.27,15.27Z"/>
    <g>
      <path class="cls-1" d="m0,48.87c0-1.64,1.19-2.81,2.78-2.81.65,0,1.23.19,1.68.53.26.2.27.58.04.81h0c-.19.19-.49.21-.7.05-.28-.21-.6-.32-.96-.32-.96,0-1.64.71-1.64,1.74s.68,1.74,1.64,1.74c.36,0,.68-.11.96-.32.21-.16.51-.14.7.05h0c.23.23.22.61-.04.81-.45.35-1.03.54-1.69.54-1.59,0-2.77-1.17-2.77-2.81Z"/>
      <path class="cls-1" d="m7.49,46.16h.5c.19,0,.34.15.34.34v3.72c0,.19.15.34.34.34h1.88c.19,0,.34.15.34.34v.34c0,.19-.15.34-.34.34h-3.07c-.19,0-.34-.15-.34-.34v-4.74c0-.19.15-.34.34-.34Z"/>
      <path class="cls-1" d="m12.62,48.87c0-1.61,1.19-2.81,2.8-2.81s2.8,1.19,2.8,2.81-1.19,2.81-2.8,2.81-2.8-1.2-2.8-2.81Zm4.4,0c0-1.03-.69-1.74-1.6-1.74s-1.6.71-1.6,1.74.69,1.74,1.6,1.74,1.6-.71,1.6-1.74Z"/>
      <path class="cls-1" d="m20.54,49.2v-2.46c0-.32.26-.59.59-.59h.01c.32,0,.59.26.59.59v2.41c0,1.03.42,1.46,1.14,1.46s1.14-.43,1.14-1.46v-2.41c0-.32.26-.59.59-.59h0c.32,0,.59.26.59.59v2.46c0,1.6-.86,2.48-2.32,2.48s-2.32-.88-2.32-2.48Z"/>
      <path class="cls-1" d="m27.81,46.58c0-.23.19-.42.42-.42h1.91c1.68,0,2.82,1.07,2.82,2.72s-1.15,2.72-2.82,2.72h-1.91c-.23,0-.42-.19-.42-.42v-4.59Zm2.27,3.98c1.02,0,1.68-.64,1.68-1.68s-.67-1.68-1.68-1.68h-.66c-.23,0-.42.19-.42.42v2.53c0,.23.19.42.42.42h.66Z"/>
      <path class="cls-2" d="m38.75,51.59c-.11,0-.21-.05-.26-.14l-.89-1.37h-.77c-.17,0-.32.14-.32.32v.88c0,.17-.14.32-.32.32h-.55c-.17,0-.32-.14-.32-.32v-4.8c0-.17.14-.32.32-.32h1.9c1.37,0,2.22.75,2.22,1.97,0,.69-.28,1.23-.77,1.56-.15.1-.19.29-.1.44l.64.97c.14.21-.01.49-.26.49h-.52Zm-1.28-4.41h-.65c-.17,0-.32.14-.32.32v1.26c0,.17.14.32.32.32h.65c.72,0,1.09-.36,1.09-.95s-.37-.95-1.09-.95Z"/>
      <path class="cls-2" d="m45.4,50.42h-2.13c-.07,0-.14.05-.17.11l-.36.94c-.03.07-.09.11-.17.11h-.82c-.13,0-.21-.13-.17-.25l2.13-5.07c.03-.07.09-.11.17-.11h.93c.07,0,.14.04.17.11l2.14,5.07c.05.12-.04.25-.17.25h-.85c-.07,0-.14-.05-.17-.11l-.36-.94c-.03-.07-.09-.11-.17-.11Zm-.35-1.2l-.55-1.41c-.06-.15-.27-.15-.33,0l-.55,1.41c-.05.12.04.24.17.24h1.1c.13,0,.21-.13.17-.24Z"/>
      <path class="cls-2" d="m51.36,49.75v1.52c0,.18-.14.32-.32.32h-.54c-.18,0-.32-.14-.32-.32v-1.53c0-.06-.01-.11-.04-.16l-1.67-2.94c-.12-.22.03-.48.28-.48h.51c.12,0,.22.06.28.16l.99,1.75c.12.22.44.22.56,0l.99-1.75c.06-.1.16-.16.28-.16h.42c.25,0,.4.27.28.48l-1.67,2.95s-.04.1-.04.16Z"/>
      <path class="cls-2" d="m58.28,50.42h-2.19c-.06,0-.11.03-.13.09l-.39.99c-.02.05-.07.09-.13.09h-.92c-.1,0-.16-.1-.13-.19l2.17-5.16c.02-.05.07-.08.13-.08h.99c.05,0,.1.03.13.08l2.18,5.16c.04.09-.03.19-.13.19h-.95c-.06,0-.11-.03-.13-.09l-.39-.99c-.02-.05-.07-.09-.13-.09Zm-.35-1.14l-.61-1.57c-.04-.12-.21-.12-.25,0l-.61,1.57c-.03.09.03.19.13.19h1.23c.1,0,.16-.1.13-.19Z"/>
    </g>
  </g>
  <g>
    <path class="cls-1" d="m83.73,15.79c0-1.25,1.01-2.27,2.27-2.27h8.92c8.06,0,13.58,4.86,13.58,12.32s-5.52,12.32-13.58,12.32h-8.92c-1.25,0-2.27-1.01-2.27-2.27V15.79Zm10.91,17.69c4.89,0,8.09-2.92,8.09-7.64s-3.2-7.64-8.09-7.64h-2.94c-1.25,0-2.27,1.01-2.27,2.27v10.74c0,1.25,1.01,2.27,2.27,2.27h2.94Z"/>
    <path class="cls-1" d="m111.25,25.84c0-7.32,5.7-12.74,13.48-12.74s13.48,5.38,13.48,12.74-5.74,12.74-13.48,12.74-13.48-5.42-13.48-12.74Zm21.18,0c0-4.68-3.31-7.88-7.71-7.88s-7.71,3.2-7.71,7.88,3.31,7.88,7.71,7.88,7.71-3.2,7.71-7.88Z"/>
    <path class="cls-1" d="m140.95,25.84c0-7.42,5.7-12.74,13.37-12.74,3.23,0,6.05.89,8.24,2.55,1.11.84,1.15,2.5.13,3.44l-.35.32c-.79.73-2.01.84-2.87.18-1.4-1.08-3.03-1.63-4.87-1.63-4.61,0-7.88,3.24-7.88,7.88s3.27,7.88,7.88,7.88c1.85,0,3.48-.55,4.87-1.65.85-.67,2.08-.57,2.88.17l.35.32c1.02.94.98,2.59-.12,3.44-2.19,1.68-5.03,2.58-8.3,2.58-7.64,0-13.34-5.31-13.34-12.74Z"/>
    <path class="cls-1" d="m166.97,33.9l.1-.21c.52-1.15,1.87-1.61,3.02-1.08,1.83.86,4.01,1.4,6.13,1.4,3.38,0,4.75-1.13,4.75-2.64,0-4.61-14.32-1.44-14.32-10.59,0-4.19,3.38-7.67,10.38-7.67,2.24,0,4.52.39,6.47,1.15,1.19.46,1.77,1.8,1.29,2.97l-.07.16c-.48,1.17-1.8,1.7-2.98,1.24-1.62-.63-3.23-.94-4.76-.94-3.38,0-4.68,1.27-4.68,2.82,0,4.54,14.32,1.41,14.32,10.45,0,4.12-3.41,7.64-10.45,7.64-2.96,0-5.93-.67-8.15-1.72-1.1-.52-1.55-1.85-1.05-2.96Z"/>
  </g>
</svg>